<?xml version="1.0" encoding="UTF-8"?>
<svg width="40" height="40" viewBox="0 0 40 40" fill="none" xmlns="http://www.w3.org/2000/svg">
  <g filter="url(#filter0_d)">
    <path d="M20 4C14.4772 4 10 8.47715 10 14C10 21 20 32 20 32C20 32 30 21 30 14C30 8.47715 25.5228 4 20 4Z" fill="#3B82F6"/>
    <path d="M20 4C14.4772 4 10 8.47715 10 14C10 21 20 32 20 32C20 32 30 21 30 14C30 8.47715 25.5228 4 20 4Z" fill="url(#paint0_linear)" fill-opacity="0.2"/>
    <path d="M20 18C22.2091 18 24 16.2091 24 14C24 11.7909 22.2091 10 20 10C17.7909 10 16 11.7909 16 14C16 16.2091 17.7909 18 20 18Z" fill="white"/>
  </g>
  <defs>
    <filter id="filter0_d" x="6" y="2" width="28" height="36" filterUnits="userSpaceOnUse" color-interpolation-filters="sRGB">
      <feFlood flood-opacity="0" result="BackgroundImageFix"/>
      <feColorMatrix in="SourceAlpha" type="matrix" values="0 0 0 0 0 0 0 0 0 0 0 0 0 0 0 0 0 0 127 0"/>
      <feOffset dy="2"/>
      <feGaussianBlur stdDeviation="2"/>
      <feColorMatrix type="matrix" values="0 0 0 0 0 0 0 0 0 0 0 0 0 0 0 0 0 0 0.25 0"/>
      <feBlend mode="normal" in2="BackgroundImageFix" result="effect1_dropShadow"/>
      <feBlend mode="normal" in="SourceGraphic" in2="effect1_dropShadow" result="shape"/>
    </filter>
    <linearGradient id="paint0_linear" x1="20" y1="4" x2="20" y2="32" gradientUnits="userSpaceOnUse">
      <stop stop-color="white"/>
      <stop offset="1" stop-color="white" stop-opacity="0"/>
    </linearGradient>
  </defs>
</svg>
